%
M48
M72
T01C0.02362
T02C0.03150
T03C0.03200
T04C0.03937
T05C0.04000
T06C0.12598
%
T01
X122000Y195000
X172000Y195000
T02
X172008Y195016
X121776Y194878
X257425Y94724
X267358Y66350
X267067Y38268
X187004Y34953
X172008Y34984
X187004Y65016
T03
X187000Y65000
X172000Y65000
X152000Y85000
X112000Y95000
X112000Y115000
X92000Y115000
X112000Y140000
X152000Y140000
X152000Y115000
X112000Y65000
X117000Y45000
X117000Y35000
X142000Y35000
X142000Y45000
X172000Y35000
X187000Y35000
T04
X187000Y15000
X177000Y15000
X167000Y15000
X157000Y15000
X197000Y15000
X207000Y15000
X227000Y15000
X237000Y15000
X247000Y15000
X257000Y15000
X267000Y15000
X277000Y15000
X277000Y205000
X267000Y205000
X257000Y205000
X247000Y205000
X237000Y205000
X227000Y205000
X217000Y205000
X207000Y205000
X191000Y205000
X181000Y205000
X171000Y205000
X161000Y205000
X151000Y205000
X141000Y205000
X131000Y205000
X121000Y205000
T05
X122000Y180000
X112000Y180000
X102000Y180000
X177000Y165000
X187000Y165000
X197000Y165000
X207000Y165000
X217000Y165000
X227000Y165000
X237000Y165000
X247000Y165000
X257000Y165000
X267000Y165000
T06
X82000Y15000
X287000Y145000
X87000Y205000
M30
